<?xml version="1.0" encoding="utf-8"?>
<!-- Generator: Adobe Illustrator 27.5.0, SVG Export Plug-In . SVG Version: 6.00 Build 0)  -->
<svg version="1.1" xmlns="http://www.w3.org/2000/svg" xmlns:xlink="http://www.w3.org/1999/xlink" x="0px" y="0px"
	 viewBox="0 0 500 500.001" style="enable-background:new 0 0 500 500.001;" xml:space="preserve">
<g id="OBJECTS">
	<path style="fill:#111111;" d="M428.137,245.128c-0.465-28.368-7.864-56.636-21.186-81.62
		c-6.649-12.502-14.758-24.201-24.108-34.783c-9.366-10.566-19.926-20.05-31.445-28.168c-23.02-16.253-49.909-26.948-77.682-30.884
		c-1.732-0.251-3.474-0.447-5.21-0.669c-1.744-0.168-3.484-0.365-5.228-0.503c-1.745-0.12-3.487-0.287-5.235-0.353
		c-1.742-0.087-3.473-0.179-5.332-0.207l-2.729-0.059l-2.381,0.008l-1.191,0.004l-0.805,0.001l-0.655,0.017l-2.616,0.071
		c-3.488,0.103-6.972,0.339-10.449,0.63c-13.899,1.289-27.653,4.176-40.836,8.664c-26.406,8.898-50.452,24.188-69.678,43.947
		c-19.29,19.715-33.681,43.975-41.793,70.051c-4.036,13.039-6.596,26.512-7.397,40.051c-0.107,1.691-0.203,3.382-0.245,5.075
		l-0.079,2.546l-0.024,2.614c-0.034,1.812,0.024,3.3,0.047,4.911l0.028,1.338l0.061,1.266l0.123,2.53
		c0.072,1.686,0.163,3.369,0.334,5.05c0.155,1.681,0.278,3.361,0.463,5.037c0.42,3.347,0.817,6.692,1.422,10.007
		c1.128,6.639,2.651,13.204,4.601,19.628c1.936,6.424,4.163,12.754,6.857,18.877c2.665,6.13,5.66,12.104,9.038,17.841
		c0.813,1.45,1.731,2.843,2.591,4.264l1.318,2.118l1.415,2.116l1.419,2.108l0.712,1.044l0.705,0.961l2.82,3.842
		c2.119,2.867,6.13,3.72,9.237,1.835c3.293-1.997,4.344-6.284,2.347-9.578l-2.472-4.075l-0.618-1.019l-0.542-0.978l-1.078-1.946
		l-1.083-1.938l-1.038-2.018c-0.677-1.356-1.41-2.679-2.04-4.057c-2.656-5.438-4.872-11.064-6.895-16.729
		c-2.028-5.667-3.606-11.477-4.92-17.32c-0.303-1.468-0.668-2.919-0.92-4.395l-0.782-4.419c-0.244-1.475-0.415-2.961-0.629-4.439
		c-0.224-1.476-0.381-2.961-0.524-4.447c-0.356-2.962-0.512-5.943-0.703-8.915c-0.07-1.487-0.081-2.979-0.126-4.466
		c-0.061-1.487-0.046-2.977-0.014-4.465l0.031-2.232l0.015-1.115l0.045-1.042c0.075-1.564,0.121-3.25,0.245-4.609l0.156-2.144
		l0.209-2.207c0.128-1.477,0.307-2.948,0.493-4.418c1.481-11.755,4.321-23.274,8.378-34.299
		c8.176-22.044,21.594-41.911,38.541-57.782c8.484-7.93,17.851-14.859,27.849-20.624c10.016-5.733,20.65-10.309,31.644-13.583
		c10.988-3.307,22.351-5.204,33.762-5.895c2.857-0.143,5.714-0.248,8.574-0.239l2.145,0.01l0.536,0.002
		c-0.322-0.001,0.081,0.005,0.087,0.007l0.297,0.008l1.189,0.034l2.38,0.068l2.028,0.119c1.316,0.06,2.751,0.183,4.176,0.3
		c1.425,0.096,2.838,0.286,4.255,0.425c1.417,0.157,2.824,0.368,4.237,0.545c1.404,0.23,2.814,0.43,4.214,0.681
		c11.2,1.984,22.16,5.178,32.565,9.674c10.421,4.447,20.263,10.184,29.36,16.886c18.2,13.425,33.134,31.135,43.325,51.155
		c10.228,20.023,15.557,42.357,15.64,64.783l0.01,1.919l-0.043,2.38c-0.016,1.69-0.091,2.926-0.142,4.295
		c-0.042,1.326-0.165,2.819-0.24,4.221l-0.352,4.253c-0.552,5.655-1.383,11.254-2.503,16.766
		c-2.268,11.015-5.714,21.674-10.356,31.706c-9.254,20.091-23.604,37.453-41.47,50.452c-8.918,6.52-18.691,11.965-29.022,16.317
		c-10.325,4.362-21.193,7.7-32.382,9.95c-5.595,1.13-11.265,2.009-16.985,2.643l-0.535,0.064c-0.026,0.002-0.035,0.003-0.053,0.005
		l-0.185,0.018l-1.185,0.107l-1.187,0.106l-0.832,0.043l-0.794,0.043c-0.261,0.017-0.52,0.034-0.856,0.038l-1.895,0.051
		c-2.55,0.021-5.147-0.059-7.767-0.234c-10.495-0.765-21.259-3.186-30.984-6.986c-4.866-1.893-9.463-4.171-13.556-6.743
		c-2.072-1.265-3.963-2.642-5.72-4.05c-1.633-1.297-3.088-2.656-4.37-4.034c0.032-0.233,0.064-0.468,0.101-0.708
		c0.362-2.425,0.906-5.175,1.522-7.964c0.62-2.802,1.321-5.679,2.065-8.579c3.011-11.638,6.634-23.564,10.401-35.444
		c3.795-11.894,7.703-23.831,11.758-35.742c8.094-23.834,16.62-47.62,25.187-71.404c3.021-8.32,6.066-16.647,9.119-24.971
		l46.749,119.5c-2.23-1.642-4.508-3.226-6.847-4.737c-9.037-5.829-18.986-10.607-29.658-13.462
		c-5.323-1.432-10.817-2.364-16.353-2.718c-2.767-0.2-5.547-0.2-8.314-0.109c-2.771,0.096-5.526,0.385-8.262,0.749
		c-4.077,0.547-7.044,4.225-6.657,8.357c0.397,4.236,4.154,7.35,8.391,6.953l0.125-0.012c8.9-0.833,17.837,0.233,26.349,2.984
		c8.522,2.736,16.611,7.081,24.091,12.446c7.48,5.377,14.386,11.736,20.682,18.693c3.147,3.48,6.151,7.107,8.979,10.853
		c1.413,1.872,2.787,3.771,4.103,5.688c0.657,0.959,1.3,1.922,1.921,2.882l0.909,1.431l0.429,0.699l0.125,0.213
		c1.642,3.735,5.367,6.347,9.709,6.347c5.859,0,10.609-4.749,10.609-10.607c0-1.584-0.357-3.082-0.981-4.432l0.006-0.002
		l-68.758-221.061l-0.002-0.002c-1.69-4.982-5.479-9.306-10.735-11.446c-9.612-3.916-20.58,0.704-24.495,10.317l-0.192,0.472
		c-9.654,23.705-18.936,47.37-28.029,71.22c-9.124,23.821-17.934,47.776-26.444,71.938c-4.238,12.09-8.438,24.219-12.395,36.507
		c-3.957,12.308-7.787,24.668-11.198,37.601c-0.847,3.246-1.666,6.532-2.433,9.927c-0.764,3.405-1.485,6.881-2.083,10.732
		c-0.296,1.936-0.565,3.955-0.746,6.292c-0.043,0.59-0.086,1.174-0.111,1.835l-0.038,0.976l-0.013,1.061
		c0.008,1.485,0.025,3.03,0.345,5.323c0.061,0.492,0.186,1.194,0.324,1.858l0.223,1.012c0.107,0.418,0.222,0.835,0.344,1.25
		c0.146,0.475,0.2,0.689,0.443,1.372c0.295,0.808,0.632,1.607,1.007,2.386c0.354,0.752,0.928,1.762,0.82,1.563l0.148,0.258
		c1.704,2.698,0.613,0.943,1.057,1.634l0.246,0.341l0.493,0.678l0.993,1.354c0.655,0.917,1.372,1.726,2.064,2.587
		c0.692,0.863,1.41,1.675,2.142,2.464c2.9,3.212,5.983,6.087,9.164,8.655c3.179,2.58,6.445,4.93,9.776,6.999
		c3.331,2.08,6.713,3.978,10.136,5.643c3.42,1.689,6.874,3.211,10.359,4.553c13.947,5.382,28.245,8.546,43.073,9.626
		c3.715,0.247,7.467,0.359,11.265,0.313l2.865-0.082c0.457-0.008,0.99-0.039,1.52-0.071l1.584-0.097l1.543-0.103l1.185-0.109
		l1.187-0.109l0.947-0.096l0.645-0.076c6.898-0.782,13.785-1.863,20.632-3.266c6.85-1.395,13.655-3.135,20.379-5.221
		c6.721-2.094,13.385-4.478,19.884-7.32c13.015-5.63,25.515-12.732,37.017-21.313c11.518-8.554,22.004-18.609,31.056-29.828
		c4.53-5.605,8.672-11.521,12.457-17.642c3.742-6.147,7.136-12.498,10.081-19.035c2.935-6.539,5.518-13.226,7.624-20.034
		c2.101-6.809,3.837-13.71,5.137-20.662c1.306-6.951,2.233-13.943,2.804-20.935l0.356-5.242c0.074-1.769,0.184-3.442,0.222-5.291
		c0.043-1.804,0.102-3.74,0.09-5.224l0.008-2.381L428.137,245.128z"/>
</g>
</svg>
