<svg xmlns="http://www.w3.org/2000/svg" width="600" height="400" viewBox="0 0 600 400"><rect width="100%" height="100%" fill="#DDDDDD"/><path fill="#999999" d="M155.35 217.8h44v-47.3q0-6.7.9-14.8zm65.5 0h18.2v14.3q0 2-1.3 3.45t-3.7 1.45h-13.2v35.3h-21.5V237h-61q-2.5 0-4.4-1.55t-2.4-3.85l-2.6-12.5 68.5-91.5h23.4zm134.3-17.8q0 18.9-4.05 32.85t-11.2 23.05-16.9 13.55-21.05 4.45-20.95-4.45-16.75-13.55-11.1-23.05-4-32.85q0-19 4-32.9t11.1-23T281 130.55t20.95-4.45 21.05 4.45 16.9 13.55 11.2 23 4.05 32.9m-25.5 0q0-15.7-2.3-26t-6.15-16.4-8.85-8.55-10.4-2.45q-5.3 0-10.25 2.45t-8.75 8.55-6.05 16.4-2.25 26 2.25 26 6.05 16.4 8.75 8.55 10.25 2.45q5.4 0 10.4-2.45t8.85-8.55 6.15-16.4 2.3-26m57.7 17.8h44v-47.3q0-6.7.9-14.8zm65.5 0h18.2v14.3q0 2-1.3 3.45t-3.7 1.45h-13.2v35.3h-21.5V237h-61q-2.5 0-4.4-1.55t-2.4-3.85l-2.6-12.5 68.5-91.5h23.4z"/></svg>